<svg width="65" height="65" viewBox="0 0 65 65" fill="none" xmlns="http://www.w3.org/2000/svg">
<path fill-rule="evenodd" clip-rule="evenodd" d="M32.5 62.9688C48.2056 62.9688 60.9375 50.2369 60.9375 34.5312C60.9375 18.8256 48.2056 6.09375 32.5 6.09375C16.7944 6.09375 4.0625 18.8256 4.0625 34.5312C4.0625 39.6315 5.40516 44.4182 7.75627 48.557L4.0625 62.9688L18.9208 59.5233C22.956 61.7203 27.5821 62.9688 32.5 62.9688ZM32.5 58.5938C45.7895 58.5938 56.5626 47.8207 56.5626 34.5312C56.5626 21.242 45.7895 10.4688 32.5 10.4688C19.2106 10.4688 8.43751 21.242 8.43751 34.5312C8.43751 39.6624 10.0435 44.4184 12.7803 48.3238L10.625 56.4062L18.8499 54.35C22.7285 57.0265 27.4312 58.5938 32.5 58.5938Z" fill="#BFC8D0"/>
<path d="M56.875 32.5C56.875 45.9619 45.9619 56.875 32.5 56.875C27.3654 56.875 22.6015 55.2874 18.6726 52.5763L10.3409 54.6591L12.5242 46.4718C9.75187 42.5155 8.125 37.6978 8.125 32.5C8.125 19.0381 19.0381 8.125 32.5 8.125C45.9619 8.125 56.875 19.0381 56.875 32.5Z" fill="url(#paint0_linear_219_1498)"/>
<path fill-rule="evenodd" clip-rule="evenodd" d="M32.5 60.9375C48.2056 60.9375 60.9375 48.2056 60.9375 32.5C60.9375 16.7944 48.2056 4.0625 32.5 4.0625C16.7944 4.0625 4.0625 16.7944 4.0625 32.5C4.0625 37.6003 5.40516 42.3869 7.75627 46.5258L4.0625 60.9375L18.9208 57.4921C22.956 59.6891 27.5821 60.9375 32.5 60.9375ZM32.5 56.5626C45.7895 56.5626 56.5626 45.7895 56.5626 32.5C56.5626 19.2106 45.7895 8.43751 32.5 8.43751C19.2106 8.43751 8.43751 19.2106 8.43751 32.5C8.43751 37.6311 10.0435 42.3871 12.7803 46.2926L10.625 54.3749L18.8499 52.3187C22.7285 54.9953 27.4312 56.5626 32.5 56.5626Z" fill="white"/>
<path d="M25.3906 19.2966C24.7146 17.9386 23.6773 18.0588 22.6295 18.0588C20.7569 18.0588 17.8369 20.3019 17.8369 24.4765C17.8369 27.8978 19.3445 31.6428 24.4246 37.2452C29.3272 42.652 35.7691 45.4488 41.117 45.3535C46.4648 45.2585 47.5652 40.6563 47.5652 39.1022C47.5652 38.4134 47.1376 38.0697 46.8433 37.9762C45.0208 37.1016 41.6595 35.4719 40.8947 35.1658C40.13 34.8597 39.7306 35.2739 39.4824 35.4991C38.789 36.1599 37.4142 38.1079 36.9434 38.546C36.4727 38.9841 35.7709 38.7623 35.4788 38.5968C34.4041 38.1655 31.4903 36.8694 29.1677 34.6178C26.2951 31.8333 26.1265 30.8752 25.5854 30.0225C25.1526 29.3402 25.4702 28.9217 25.6287 28.7387C26.2476 28.0247 27.1022 26.9222 27.4855 26.3743C27.8685 25.8263 27.5645 24.9945 27.3819 24.4765C26.5968 22.2483 25.9315 20.383 25.3906 19.2966Z" fill="white"/>
<defs>
<linearGradient id="paint0_linear_219_1498" x1="53.8281" y1="14.2187" x2="8.125" y2="56.875" gradientUnits="userSpaceOnUse">
<stop stop-color="#5BD066"/>
<stop offset="1" stop-color="#27B43E"/>
</linearGradient>
</defs>
</svg>
